<svg width="18" height="21" viewBox="0 0 18 21" fill="none" xmlns="http://www.w3.org/2000/svg">
<path id="Vector" d="M0 19.0312C0 20.1182 0.863839 21 1.92857 21H16.0714C17.1362 21 18 20.1182 18 19.0312V7.875H0V19.0312ZM12.8571 10.9922C12.8571 10.7215 13.0741 10.5 13.3393 10.5H14.9464C15.2116 10.5 15.4286 10.7215 15.4286 10.9922V12.6328C15.4286 12.9035 15.2116 13.125 14.9464 13.125H13.3393C13.0741 13.125 12.8571 12.9035 12.8571 12.6328V10.9922ZM12.8571 16.2422C12.8571 15.9715 13.0741 15.75 13.3393 15.75H14.9464C15.2116 15.75 15.4286 15.9715 15.4286 16.2422V17.8828C15.4286 18.1535 15.2116 18.375 14.9464 18.375H13.3393C13.0741 18.375 12.8571 18.1535 12.8571 17.8828V16.2422ZM7.71429 10.9922C7.71429 10.7215 7.93125 10.5 8.19643 10.5H9.80357C10.0688 10.5 10.2857 10.7215 10.2857 10.9922V12.6328C10.2857 12.9035 10.0688 13.125 9.80357 13.125H8.19643C7.93125 13.125 7.71429 12.9035 7.71429 12.6328V10.9922ZM7.71429 16.2422C7.71429 15.9715 7.93125 15.75 8.19643 15.75H9.80357C10.0688 15.75 10.2857 15.9715 10.2857 16.2422V17.8828C10.2857 18.1535 10.0688 18.375 9.80357 18.375H8.19643C7.93125 18.375 7.71429 18.1535 7.71429 17.8828V16.2422ZM2.57143 10.9922C2.57143 10.7215 2.78839 10.5 3.05357 10.5H4.66071C4.92589 10.5 5.14286 10.7215 5.14286 10.9922V12.6328C5.14286 12.9035 4.92589 13.125 4.66071 13.125H3.05357C2.78839 13.125 2.57143 12.9035 2.57143 12.6328V10.9922ZM2.57143 16.2422C2.57143 15.9715 2.78839 15.75 3.05357 15.75H4.66071C4.92589 15.75 5.14286 15.9715 5.14286 16.2422V17.8828C5.14286 18.1535 4.92589 18.375 4.66071 18.375H3.05357C2.78839 18.375 2.57143 18.1535 2.57143 17.8828V16.2422ZM16.0714 2.625H14.1429V0.65625C14.1429 0.295313 13.8536 0 13.5 0H12.2143C11.8607 0 11.5714 0.295313 11.5714 0.65625V2.625H6.42857V0.65625C6.42857 0.295313 6.13929 0 5.78571 0H4.5C4.14643 0 3.85714 0.295313 3.85714 0.65625V2.625H1.92857C0.863839 2.625 0 3.50684 0 4.59375V6.5625H18V4.59375C18 3.50684 17.1362 2.625 16.0714 2.625Z" fill="#004890"/>
</svg>
