<svg width="20" height="17" viewBox="0 0 20 17" fill="none" xmlns="http://www.w3.org/2000/svg">
<path d="M19.375 13.3571H6.25V12.75C6.25 12.4161 5.96875 12.1429 5.625 12.1429H4.375C4.03125 12.1429 3.75 12.4161 3.75 12.75V13.3571H0.625C0.28125 13.3571 0 13.6304 0 13.9643V15.1786C0 15.5125 0.28125 15.7857 0.625 15.7857H3.75V16.3929C3.75 16.7268 4.03125 17 4.375 17H5.625C5.96875 17 6.25 16.7268 6.25 16.3929V15.7857H19.375C19.7188 15.7857 20 15.5125 20 15.1786V13.9643C20 13.6304 19.7188 13.3571 19.375 13.3571ZM19.375 7.28571H16.25V6.67857C16.25 6.34464 15.9688 6.07143 15.625 6.07143H14.375C14.0312 6.07143 13.75 6.34464 13.75 6.67857V7.28571H0.625C0.28125 7.28571 0 7.55893 0 7.89286V9.10714C0 9.44107 0.28125 9.71429 0.625 9.71429H13.75V10.3214C13.75 10.6554 14.0312 10.9286 14.375 10.9286H15.625C15.9688 10.9286 16.25 10.6554 16.25 10.3214V9.71429H19.375C19.7188 9.71429 20 9.44107 20 9.10714V7.89286C20 7.55893 19.7188 7.28571 19.375 7.28571ZM19.375 1.21429H11.25V0.607143C11.25 0.273214 10.9688 0 10.625 0H9.375C9.03125 0 8.75 0.273214 8.75 0.607143V1.21429H0.625C0.28125 1.21429 0 1.4875 0 1.82143V3.03571C0 3.36964 0.28125 3.64286 0.625 3.64286H8.75V4.25C8.75 4.58393 9.03125 4.85714 9.375 4.85714H10.625C10.9688 4.85714 11.25 4.58393 11.25 4.25V3.64286H19.375C19.7188 3.64286 20 3.36964 20 3.03571V1.82143C20 1.4875 19.7188 1.21429 19.375 1.21429Z" fill="#004890"/>
</svg>
