<svg width="39" height="39" viewBox="0 0 39 39" fill="none" xmlns="http://www.w3.org/2000/svg">
<path id="Vector" d="M19.5 0C8.7312 0 0 8.73435 0 19.5C0 30.2719 8.7312 39 19.5 39C30.2688 39 39 30.2719 39 19.5C39 8.73435 30.2688 0 19.5 0ZM19.5 8.64919C21.3239 8.64919 22.8024 10.1277 22.8024 11.9516C22.8024 13.7755 21.3239 15.254 19.5 15.254C17.6761 15.254 16.1976 13.7755 16.1976 11.9516C16.1976 10.1277 17.6761 8.64919 19.5 8.64919ZM23.9032 28.621C23.9032 29.142 23.4808 29.5645 22.9597 29.5645H16.0403C15.5192 29.5645 15.0968 29.142 15.0968 28.621V26.7339C15.0968 26.2128 15.5192 25.7903 16.0403 25.7903H16.9839V20.7581H16.0403C15.5192 20.7581 15.0968 20.3356 15.0968 19.8145V17.9274C15.0968 17.4063 15.5192 16.9839 16.0403 16.9839H21.0726C21.5937 16.9839 22.0161 17.4063 22.0161 17.9274V25.7903H22.9597C23.4808 25.7903 23.9032 26.2128 23.9032 26.7339V28.621Z" fill="url(#paint0_linear_404_2074)"/>
<defs>
<linearGradient id="paint0_linear_404_2074" x1="19.5" y1="0" x2="19.5" y2="39" gradientUnits="userSpaceOnUse">
<stop stop-color="#56BFC7"/>
<stop offset="1" stop-color="#004890"/>
</linearGradient>
</defs>
</svg>
