<svg width="16" height="14" viewBox="0 0 16 14" fill="none" xmlns="http://www.w3.org/2000/svg">
<path id="Vector" d="M11.1833 2.27271L13.6889 4.7396C13.7944 4.84352 13.7944 5.01309 13.6889 5.11701L7.62222 11.0901L5.04444 11.3718C4.7 11.41 4.40833 11.1229 4.44722 10.7837L4.73333 8.24575L10.8 2.27271C10.9056 2.16878 11.0778 2.16878 11.1833 2.27271ZM15.6833 1.64642L14.3278 0.31178C13.9056 -0.103927 13.2194 -0.103927 12.7944 0.31178L11.8111 1.27994C11.7056 1.38386 11.7056 1.55343 11.8111 1.65736L14.3167 4.12424C14.4222 4.22817 14.5944 4.22817 14.7 4.12424L15.6833 3.15609C16.1056 2.73764 16.1056 2.06212 15.6833 1.64642ZM10.6667 9.46552V12.2497H1.77778V3.49795H8.16111C8.25 3.49795 8.33333 3.4624 8.39722 3.40223L9.50833 2.30826C9.71944 2.10041 9.56944 1.74761 9.27222 1.74761H1.33333C0.597222 1.74761 0 2.33561 0 3.06036V12.6872C0 13.412 0.597222 14 1.33333 14H11.1111C11.8472 14 12.4444 13.412 12.4444 12.6872V8.37156C12.4444 8.07892 12.0861 7.93397 11.875 8.13909L10.7639 9.23305C10.7028 9.29596 10.6667 9.378 10.6667 9.46552Z" fill="#1E1E1E"/>
</svg>
