<svg width="26" height="25" viewBox="0 0 26 25" fill="none" xmlns="http://www.w3.org/2000/svg">
<path id="Vector" d="M1.92871 0.338272C1.78259 0.369646 1.64864 0.442554 1.54297 0.548231C1.43729 0.653908 1.36438 0.787855 1.33301 0.933975C0.996094 2.50624 0.996094 3.73622 0.996094 4.96181C0.996094 10.0009 3.69141 13.0233 7.24609 15.2787L7.24609 20.3666C7.24646 20.8011 7.36762 21.227 7.59602 21.5966C7.82443 21.9663 8.1511 22.2651 8.53955 22.4599L13.3638 24.8729C13.5425 24.9621 13.741 25.004 13.9405 24.9949C14.14 24.9857 14.3338 24.9257 14.5036 24.8206C14.6734 24.7155 14.8135 24.5687 14.9106 24.3942C15.0078 24.2197 15.0587 24.0233 15.0586 23.8236V18.7567L16.1558 19.8539C16.4488 20.1468 16.8462 20.3114 17.2605 20.3114C17.6748 20.3114 18.0722 20.1468 18.3652 19.8539L20.8511 17.3685C20.9962 17.2234 21.1113 17.0512 21.1899 16.8616C21.2684 16.672 21.3088 16.4688 21.3088 16.2636C21.3088 16.0583 21.2684 15.8551 21.1899 15.6655C21.1113 15.4759 20.9962 15.3037 20.8511 15.1586L19.7539 14.0614H24.8242C25.0238 14.0615 25.2202 14.0105 25.3946 13.9134C25.569 13.8163 25.7157 13.6763 25.8209 13.5066C25.926 13.3368 25.986 13.1431 25.9952 12.9437C26.0044 12.7442 25.9625 12.5458 25.8735 12.3671L23.4619 7.54774C23.2676 7.15866 22.9686 6.83146 22.5986 6.6029C22.2285 6.37433 21.8021 6.25344 21.3672 6.2538H16.269C14.0083 2.70937 10.9761 0.00379944 5.96191 0.00379944C4.73145 -0.00108337 3.50098 -0.00108337 1.92871 0.338272ZM9.19922 6.24892C9.19922 6.63521 9.08467 7.01283 8.87006 7.33401C8.65545 7.6552 8.35041 7.90554 7.99352 8.05337C7.63664 8.20119 7.24393 8.23987 6.86506 8.16451C6.48619 8.08915 6.13818 7.90313 5.86503 7.62998C5.59188 7.35683 5.40586 7.00882 5.3305 6.62995C5.25514 6.25108 5.29381 5.85837 5.44164 5.50149C5.58947 5.1446 5.83981 4.83956 6.161 4.62495C6.48219 4.41034 6.8598 4.29579 7.24609 4.29579C7.76409 4.29579 8.26088 4.50157 8.62716 4.86785C8.99344 5.23413 9.19922 5.73092 9.19922 6.24892Z" fill="black"/>
</svg>
