<svg width="33" height="32" viewBox="0 0 33 32" fill="none" xmlns="http://www.w3.org/2000/svg">
<g id="&#240;&#159;&#166;&#134; emoji &#34;waving hand sign&#34;">
<path id="Vector" d="M7.75596 25.0327C7.48093 24.9777 7.2609 24.9227 6.98587 24.8126C6.71083 24.7026 6.49081 24.6476 6.27078 24.5376C5.77572 24.3176 5.33566 24.0425 4.89561 23.7125C4.0155 23.1074 3.30041 22.2823 2.75034 21.2922C2.20027 20.3571 1.87023 19.257 1.81523 18.2118C1.76022 17.6618 1.81523 17.1667 1.87023 16.6166C1.92524 16.3416 1.98025 16.1216 2.03525 15.8465C2.09026 15.5715 2.20027 15.3515 2.25528 15.0764L2.31029 15.8465C2.31029 16.1216 2.36529 16.3416 2.4203 16.6166C2.47531 17.1117 2.58532 17.6068 2.69534 18.0468C2.91536 18.9819 3.2454 19.862 3.74047 20.6871C4.23553 21.5122 4.78559 22.2823 5.50068 22.9974C5.83072 23.3275 6.21577 23.6575 6.60082 23.9875C6.76584 24.1526 6.98587 24.3176 7.2059 24.4826L7.75596 25.0327ZM7.59094 27.0129C7.42592 27.1229 7.2059 27.1779 6.98587 27.2329C6.76584 27.288 6.60082 27.343 6.38079 27.343C5.99575 27.398 5.55569 27.453 5.11564 27.398C4.29053 27.343 3.41042 27.1229 2.69534 26.7379C1.92524 26.3528 1.26516 25.7478 0.825103 25.0327C0.605075 24.7026 0.385048 24.3176 0.220027 23.9325C0.165021 23.7675 0.110014 23.5475 0.0550068 23.3275C0.0550068 23.1624 0 22.9974 0 22.7774C0.165021 22.9424 0.275034 23.1074 0.385048 23.2174C0.550068 23.3825 0.660082 23.5475 0.770096 23.6575C1.04513 23.9325 1.26516 24.2076 1.54019 24.4276C2.09026 24.9227 2.64033 25.3627 3.30041 25.6928C3.90549 26.0228 4.62057 26.2978 5.28066 26.5179C5.6107 26.6279 5.99575 26.6829 6.38079 26.7929C6.54581 26.8479 6.76584 26.8479 6.93086 26.9029C7.2059 26.9579 7.37092 26.9579 7.59094 27.0129ZM20.0225 0.279598C20.2975 0.334605 20.5175 0.444618 20.7926 0.554632C21.0676 0.664645 21.2876 0.774659 21.5077 0.884673C22.0027 1.15971 22.4428 1.43474 22.8828 1.76478C23.763 2.42486 24.478 3.30497 24.9731 4.2951C25.4682 5.28522 25.7432 6.38536 25.7432 7.43049C25.7432 7.98055 25.6882 8.47562 25.5782 9.02568C25.5232 9.30072 25.4682 9.52074 25.3582 9.79578C25.2481 10.0708 25.1931 10.2908 25.0831 10.5109L25.0281 9.74077C25.0281 9.46574 25.0281 9.24571 24.9731 8.97068L24.8081 7.48549C24.6431 6.55038 24.313 5.61526 23.873 4.73515C23.4329 3.85504 22.8828 3.08495 22.2228 2.36986C21.8927 1.98481 21.5077 1.65477 21.1776 1.26972C21.0126 1.1047 20.7926 0.93968 20.5726 0.774659L20.0225 0.279598ZM24.8081 0.0595703C25.0281 0.114577 25.1931 0.169584 25.3582 0.279598C25.5232 0.334605 25.7432 0.444618 25.9082 0.554632C26.2383 0.774659 26.5683 0.994687 26.8983 1.26972C27.5034 1.81979 27.9985 2.47987 28.2735 3.24997C28.6036 4.02006 28.7136 4.84517 28.6036 5.67027C28.5485 6.05532 28.4385 6.44036 28.3285 6.82541C28.2735 6.99043 28.1635 7.21046 28.1085 7.37548C27.9985 7.5405 27.9435 7.70552 27.7785 7.87054V7.32047V6.7704C27.7785 6.38536 27.7234 6.05531 27.7234 5.72527C27.6134 5.01018 27.5034 4.3501 27.2284 3.74503C26.9534 3.08495 26.6233 2.53488 26.2383 1.9298C26.0182 1.65477 25.7982 1.32473 25.5782 1.04969C25.4682 0.884673 25.3582 0.774659 25.1931 0.609639C25.0831 0.334604 24.9181 0.169584 24.8081 0.0595703Z" fill="#42ADE2"/>
<path id="Vector_2" d="M4.40007 8.2556C3.29993 8.75067 2.91488 10.0708 3.40994 11.171L10.3408 25.6378L14.1913 23.8225L7.26042 9.30073C6.76536 8.2006 5.5002 7.70554 4.40007 8.2556ZM22.6073 19.752L26.6778 17.8268L18.7568 1.32474C18.2068 0.224607 16.8866 -0.270454 15.7315 0.279614C14.6313 0.829683 14.1363 2.14985 14.6863 3.30499L22.6073 19.752Z" fill="#FFDD67"/>
<path id="Vector_3" d="M15.7871 0.224716C15.6771 0.279722 15.567 0.334729 15.457 0.444743C16.5022 0.169709 17.6023 0.66477 18.0974 1.65489L26.0183 18.1569L26.7334 17.8269L18.8124 1.32485C18.2624 0.169709 16.9422 -0.325353 15.7871 0.224716Z" fill="#EBA352"/>
<path id="Vector_4" d="M14.1916 23.7675L18.4271 21.7323L10.3411 4.90017C9.79103 3.74502 8.36086 3.19495 7.20571 3.74502C6.05057 4.29509 5.55551 5.72527 6.10557 6.88041L14.1916 23.7675Z" fill="#FFDD67"/>
<path id="Vector_5" d="M7.20504 3.79973C7.09503 3.85474 6.98501 3.90974 6.875 4.01976C7.92013 3.74472 9.13028 4.23978 9.62534 5.28491L14.631 15.7912L15.8411 16.5063L10.3404 4.95487C9.79036 3.74472 8.41519 3.24966 7.20504 3.79973Z" fill="#EBA352"/>
<path id="Vector_6" d="M17.7677 20.4124L22.0033 18.3772L13.9173 1.54508C13.3672 0.389932 11.937 -0.160136 10.7819 0.444939C9.62674 0.995007 9.13168 2.42518 9.68175 3.58033L17.7677 20.4124Z" fill="#FFDD67"/>
<path id="Vector_7" d="M10.7811 0.389572C10.6711 0.444579 10.5611 0.554592 10.4511 0.609599C11.4962 0.334565 12.7064 0.829627 13.2014 1.87476L18.8672 13.7562L20.0773 14.4713L13.9165 1.54472C13.3665 0.334565 11.9363 -0.160496 10.7811 0.389572ZM4.40035 8.25555C4.29034 8.31056 4.18033 8.36556 4.07031 8.47558C5.06044 8.20054 6.10557 8.6956 6.54562 9.68573L10.6711 18.3218L11.8813 19.0369L7.26071 9.35569C6.76565 8.20054 5.50049 7.70548 4.40035 8.25555Z" fill="#EBA352"/>
<path id="Vector_8" d="M32.3449 6.60514C30.8597 5.44999 28.4394 6.71515 27.2292 10.6756C26.4041 13.426 26.2941 14.2511 24.5339 15.0762L23.5438 13.0409C23.5438 13.0409 7.92182 20.5769 8.5269 21.787C8.5269 21.787 10.3971 27.6177 13.5875 30.3131C18.3181 34.3836 29.3745 30.038 29.8695 19.5317C30.1446 13.426 33.9401 7.87029 32.3449 6.60514Z" fill="#FFDD67"/>
<g id="Group">
<path id="Vector_9" d="M32.3444 6.60575C32.0694 6.38572 31.7393 6.27571 31.4093 6.2207C31.4643 6.27571 31.5743 6.27571 31.6293 6.33072C33.2795 7.59587 31.5743 10.5112 30.6392 13.1516C29.8691 15.2418 29.209 17.3871 29.319 19.4774C29.7591 28.6085 20.5729 32.954 15.0723 31.3038C20.4629 33.5591 30.4742 29.2686 30.0341 19.7524C29.9241 17.6621 30.5292 15.6269 31.3543 13.4266C32.2344 10.7863 33.9396 7.87091 32.3444 6.60575Z" fill="#EBA352"/>
<path id="Vector_10" d="M25.0286 14.8564C21.6182 15.2415 16.6125 20.1371 20.133 25.4728C17.5477 20.0821 21.7832 16.4516 24.4785 15.1865C24.7536 14.9665 25.0286 14.8564 25.0286 14.8564Z" fill="#EBA352"/>
</g>
</g>
</svg>
